<svg xmlns="http://www.w3.org/2000/svg" xmlns:xlink="http://www.w3.org/1999/xlink" width="48" zoomAndPan="magnify" viewBox="0 0 36 36.000001" height="48" preserveAspectRatio="xMidYMid meet" version="1.0"><defs><g/></defs><g fill="#2b2b2b" fill-opacity="1"><g transform="translate(2.658207, 26.510691)"><g><path d="M 7.0625 -0.984375 C 7.0625 -0.960938 7.070312 -0.9375 7.09375 -0.90625 C 7.21875 -0.582031 7.367188 -0.3125 7.546875 -0.09375 C 7.691406 0.09375 8.050781 0.3125 8.625 0.5625 C 8.945312 0.75 9.257812 0.75 9.5625 0.5625 C 10.238281 0.164062 10.804688 -0.140625 11.265625 -0.359375 C 11.742188 -0.597656 12.492188 -0.804688 13.515625 -0.984375 C 14.648438 -1.171875 15.535156 -1.253906 16.171875 -1.234375 C 16.671875 -1.210938 17.390625 -1.109375 18.328125 -0.921875 C 18.691406 -0.867188 18.984375 -0.84375 19.203125 -0.84375 C 19.378906 -0.28125 19.609375 0.195312 19.890625 0.59375 C 20.566406 1.695312 21.796875 2.476562 23.578125 2.9375 C 24.828125 3.195312 26.34375 3.226562 28.125 3.03125 C 28.601562 2.988281 28.910156 2.71875 29.046875 2.21875 C 29.191406 1.851562 29.082031 1.414062 28.71875 0.90625 C 27.90625 0.0195312 27.117188 -0.859375 26.359375 -1.734375 C 25.003906 -3.335938 23.625 -4.738281 22.21875 -5.9375 C 22.101562 -6.03125 21.992188 -6.035156 21.890625 -5.953125 C 21.835938 -5.941406 21.867188 -5.851562 21.984375 -5.6875 C 23.179688 -4.289062 24.09375 -3.046875 24.71875 -1.953125 C 25.207031 -1.109375 25.503906 -0.414062 25.609375 0.125 C 25.609375 0.320312 25.578125 0.460938 25.515625 0.546875 C 25.421875 0.617188 25.289062 0.664062 25.125 0.6875 C 24.613281 0.6875 23.976562 0.566406 23.21875 0.328125 C 22.457031 0.109375 21.914062 -0.300781 21.59375 -0.90625 C 20.957031 -1.894531 20.671875 -3.578125 20.734375 -5.953125 C 20.742188 -7.429688 20.972656 -9.148438 21.421875 -11.109375 C 21.773438 -12.910156 22.242188 -14.507812 22.828125 -15.90625 C 23.085938 -16.601562 23.242188 -17.140625 23.296875 -17.515625 C 23.316406 -17.796875 23.195312 -18.097656 22.9375 -18.421875 C 22.34375 -19.253906 21.414062 -19.882812 20.15625 -20.3125 C 19.738281 -20.46875 19.390625 -20.503906 19.109375 -20.421875 C 18.390625 -20.242188 17.617188 -19.882812 16.796875 -19.34375 C 15.722656 -18.6875 14.546875 -18.148438 13.265625 -17.734375 C 12.148438 -17.347656 11.203125 -16.789062 10.421875 -16.0625 C 10.378906 -16.15625 10.359375 -16.210938 10.359375 -16.234375 C 10.117188 -16.753906 9.84375 -17.144531 9.53125 -17.40625 C 9.125 -17.6875 8.765625 -17.851562 8.453125 -17.90625 C 8.085938 -18.007812 7.816406 -18.140625 7.640625 -18.296875 C 7.472656 -18.484375 7.34375 -18.554688 7.25 -18.515625 C 7.207031 -18.492188 7.207031 -18.242188 7.25 -17.765625 C 7.269531 -17.328125 7.390625 -16.828125 7.609375 -16.265625 C 7.804688 -15.765625 7.816406 -14.742188 7.640625 -13.203125 C 7.179688 -9.585938 6.75 -6.953125 6.34375 -5.296875 C 5.925781 -3.484375 5.46875 -2.109375 4.96875 -1.171875 C 4.445312 -0.191406 4.128906 0.304688 4.015625 0.328125 C 3.910156 0.347656 3.820312 0.289062 3.75 0.15625 C 3.625 -0.03125 3.519531 0.046875 3.4375 0.390625 C 3.28125 1.066406 3.210938 1.707031 3.234375 2.3125 C 3.234375 2.6875 3.265625 2.914062 3.328125 3 C 3.398438 3.070312 3.660156 2.960938 4.109375 2.671875 C 4.660156 2.242188 5.195312 1.722656 5.71875 1.109375 C 6.21875 0.523438 6.664062 -0.171875 7.0625 -0.984375 Z M 11.6875 -15.15625 C 12.519531 -15.019531 13.164062 -15.0625 13.625 -15.28125 C 16.019531 -16.28125 17.804688 -17.164062 18.984375 -17.9375 C 19.367188 -18.15625 19.691406 -18.285156 19.953125 -18.328125 C 20.191406 -18.390625 20.347656 -18.367188 20.421875 -18.265625 C 20.503906 -18.191406 20.535156 -18.0625 20.515625 -17.875 C 19.796875 -14.582031 19.347656 -12.160156 19.171875 -10.609375 C 18.953125 -9.148438 18.8125 -7.476562 18.75 -5.59375 C 18.707031 -4.632812 18.71875 -3.769531 18.78125 -3 C 18.65625 -3.113281 18.546875 -3.203125 18.453125 -3.265625 C 18.210938 -3.421875 17.960938 -3.539062 17.703125 -3.625 C 17.460938 -3.726562 17.160156 -3.726562 16.796875 -3.625 C 16.160156 -3.445312 15.503906 -3.316406 14.828125 -3.234375 C 14.804688 -3.234375 14.785156 -3.222656 14.765625 -3.203125 C 14.765625 -4.265625 14.796875 -5.582031 14.859375 -7.15625 C 14.992188 -7.019531 15.144531 -6.953125 15.3125 -6.953125 C 15.445312 -6.953125 15.65625 -7.050781 15.9375 -7.25 C 16.738281 -7.789062 17.445312 -8.207031 18.0625 -8.5 C 18.382812 -8.664062 18.554688 -8.835938 18.578125 -9.015625 C 18.648438 -9.191406 18.648438 -9.421875 18.578125 -9.703125 C 18.472656 -10.003906 18.28125 -10.210938 18 -10.328125 C 17.582031 -10.546875 16.875 -10.894531 15.875 -11.375 C 15.757812 -11.4375 15.691406 -11.457031 15.671875 -11.4375 C 15.628906 -11.414062 15.644531 -11.347656 15.71875 -11.234375 C 16.164062 -10.390625 16.296875 -9.859375 16.109375 -9.640625 C 16.109375 -9.566406 15.988281 -9.488281 15.75 -9.40625 C 15.53125 -9.382812 15.269531 -9.320312 14.96875 -9.21875 C 14.988281 -9.5625 15.019531 -9.875 15.0625 -10.15625 C 15.144531 -11.332031 15.035156 -12.226562 14.734375 -12.84375 C 14.492188 -13.363281 14.234375 -13.722656 13.953125 -13.921875 C 13.660156 -14.140625 13.394531 -14.222656 13.15625 -14.171875 C 12.914062 -14.148438 12.65625 -14.21875 12.375 -14.375 C 12.007812 -14.65625 11.878906 -14.394531 11.984375 -13.59375 C 12.003906 -13.21875 12.191406 -12.757812 12.546875 -12.21875 C 12.867188 -11.71875 13.039062 -10.929688 13.0625 -9.859375 C 13.0625 -8.160156 12.960938 -5.863281 12.765625 -2.96875 C 12.421875 -2.945312 12.117188 -2.894531 11.859375 -2.8125 C 11.640625 -2.789062 11.460938 -2.753906 11.328125 -2.703125 C 11.398438 -3.054688 11.46875 -3.484375 11.53125 -3.984375 C 11.65625 -5.117188 11.585938 -5.867188 11.328125 -6.234375 C 11.085938 -6.566406 10.925781 -6.851562 10.84375 -7.09375 C 10.738281 -7.375 10.769531 -7.644531 10.9375 -7.90625 C 11.070312 -8.1875 11.0625 -8.316406 10.90625 -8.296875 C 10.6875 -8.273438 10.492188 -8.207031 10.328125 -8.09375 C 9.992188 -7.882812 9.765625 -7.632812 9.640625 -7.34375 C 9.484375 -7.039062 9.425781 -6.671875 9.46875 -6.234375 C 9.488281 -5.804688 9.597656 -5.375 9.796875 -4.9375 C 9.992188 -4.519531 10.082031 -4.082031 10.0625 -3.625 C 10.019531 -3.207031 9.910156 -2.769531 9.734375 -2.3125 C 9.316406 -2.226562 9.007812 -2.125 8.8125 -2 C 8.226562 -1.757812 7.835938 -1.660156 7.640625 -1.703125 C 7.515625 -1.742188 7.429688 -1.742188 7.390625 -1.703125 C 7.648438 -2.421875 7.894531 -3.238281 8.125 -4.15625 C 8.414062 -5.34375 8.59375 -6.546875 8.65625 -7.765625 C 8.738281 -8.992188 8.9375 -10.226562 9.25 -11.46875 C 9.550781 -12.550781 9.894531 -13.53125 10.28125 -14.40625 C 10.351562 -14.6875 10.421875 -14.914062 10.484375 -15.09375 C 10.835938 -15.257812 11.238281 -15.28125 11.6875 -15.15625 Z M 11.6875 -15.15625 "/></g></g></g></svg>